<svg xmlns="http://www.w3.org/2000/svg" viewBox="0 0 26.67 27.11"><defs><style>.cls-1{fill:none;stroke:gray;stroke-miterlimit:10;stroke-width:3px;}.cls-2{fill:gray;}</style></defs><g id="Слой_2"><g id="Header"><path class="cls-1" d="M3.72,19.06v-.2a6.77,6.77,0,0,0,6.75,6.75h7.94a6.78,6.78,0,0,0,6.76-6.75V8.25A6.78,6.78,0,0,0,18.41,1.5H10.47A6.77,6.77,0,0,0,3.72,8.25v-.2"/><polygon class="cls-2" points="15.62 15.02 0 15.02 0 11.91 15.36 11.91 15.62 11.91 15.62 15.02"/><polygon class="cls-2" points="14.11 13.48 8.24 7.61 12.64 7.61 18.5 13.47 14.11 13.48"/><polygon class="cls-2" points="14.1 13.47 8.23 19.33 12.64 19.33 18.5 13.47 14.1 13.47"/></g></g></svg>