<svg xmlns="http://www.w3.org/2000/svg" xmlns:xlink="http://www.w3.org/1999/xlink" viewBox="0 0 921.21 408.17"><defs><style>.cls-1{fill:url(#Безымянный_градиент_9);}</style><linearGradient id="Безымянный_градиент_9" x1="460.61" y1="8.29" x2="460.61" y2="396.95" gradientUnits="userSpaceOnUse"><stop offset="0" stop-color="#ec8b6b"/><stop offset="1" stop-color="#ed6e9f"/></linearGradient></defs><g id="Слой_2" data-name="Слой 2"><g id="Слой_3_Изображение" data-name="Слой 3 Изображение"><path class="cls-1" d="M242.12,109l-24.29,2.18c-12.06,0-21.83,7.59-21.83,19.65v22.45a21.83,21.83,0,0,0,21.83,21.83h24.29A21.83,21.83,0,0,0,264,153.24V130.79A21.83,21.83,0,0,0,242.12,109Zm69,2.52,41.41-2.18a21.84,21.84,0,0,0,21.84-21.83V55.06a21.83,21.83,0,0,0-21.84-21.83L311.1,35.41a21.83,21.83,0,0,0-21.84,21.83V89.65A21.83,21.83,0,0,0,311.1,111.48ZM427,173.5h55.13a21.83,21.83,0,0,0,21.83-21.83V119.26a21.83,21.83,0,0,0-21.83-21.83L427,99.61c-12.06,0-21.83,3.23-21.83,15.29v36.77A21.83,21.83,0,0,0,427,173.5ZM590,74.37V46.32a21.84,21.84,0,0,0-21.83-21.83l-39.85,2.18a21.83,21.83,0,0,0-21.83,21.84v28a21.83,21.83,0,0,0,21.83,21.83l39.85-2.18A21.84,21.84,0,0,0,590,74.37ZM617.86,174.8h65.5A21.83,21.83,0,0,0,705.19,153v-48A21.84,21.84,0,0,0,683.36,83.1l-65.5,2.18A21.84,21.84,0,0,0,596,107.12V153A21.83,21.83,0,0,0,617.86,174.8Zm-437.66,139c0,.18,0,.34,0,.52C180.34,316.23,180.34,316.2,180.2,313.76ZM242.85.48C202.49,5.25,57.13,15.61,30.67,18.4,10.74,20.5-.37,18.34,0,44.11c.34,29.3,10.16,25.67,29.75,24.34,33.16-1.48,75.72-3,75.72-3S99.8,312.51,99.8,320.51c0,16.19,10.68,20.69,22.82,20.69s20.2.34,33.25-.11,25.48-3.9,24.35-26.81C179,294.18,165.29,62.45,165.29,62.45s44-2,76.65-4c23.92-1.91,28.83-4.12,28.58-29.8C270.26,2.59,262.69-1.66,242.85.48ZM227.16,195c-22.45-.53-21.41-.74-23.58,28.73-2.09,28.43-2.48,73.44-.31,98.34C204.36,334.6,207,341,221.78,342.2a200.36,200.36,0,0,0,24,.33C257.8,342,260.83,336,260.9,321.9,261,296,256.84,249,252.4,221,248.22,194.64,249.15,195.52,227.16,195Zm277.52,45.6c-.2-3.32-.51-6.35-.95-9.09s-2-5.2-2.69-7.39-3.72-6.61-5.49-9.08c-4.66-6.65-11-9.92-17.89-14.07s-15.41-6.27-25.56-6.37a58.73,58.73,0,0,0-15.16,1.9,59.39,59.39,0,0,0-13.26,5.28,55.53,55.53,0,0,0-11.2,8.05,69.53,69.53,0,0,0-9.16,10.4h-.59q-5.85-13.17-17.06-19.4a51.17,51.17,0,0,0-25.27-6.23,55.64,55.64,0,0,0-15,2,61.93,61.93,0,0,0-13,5.2,54.24,54.24,0,0,0-10.62,7.47c-3.13,2.83-3.71,2.71-5.77,5.64h-.58a12.69,12.69,0,0,0-1.38-8.44c-5.38-8.63-9.48-8.33-19.58-8.33s-13.64,5.56-14,16.19c-.84,27.5-2,87.45-2,101.08,0,17.54,4.95,24.43,20.89,24.67,25.21.37,28.26-5.21,28.13-22.75-.12-15.92-2-82-2-82,2.34-2.83.66-1.35,3.54-3.65s1.91-1.25,5.08-2.86a42.35,42.35,0,0,1,8.6-3.73,35.46,35.46,0,0,1,9.37-1.32q8.64.15,13.26,4.1a19.57,19.57,0,0,1,6.22,10.4,41.65,41.65,0,0,1,1,6.89c.19,2.63.29,5.47.29,8.49,0,0-2.53,45.82-2,62.83s3,23.55,19.88,23.6c23.41.06,23.78-7.79,24.84-25.73,1.26-21.25-4-77-4-77,2.34-2.83.95-.39,3.83-2.69a53.25,53.25,0,0,1,9.09-5.86,50.65,50.65,0,0,1,9.59-3.73,35.54,35.54,0,0,1,9.38-1.32c5.66.1,8.05,1.46,11.18,4.1a19.44,19.44,0,0,1,6.3,10.4,40.69,40.69,0,0,1,1,6.89c.2,2.63.3,5.47.3,8.49,0,0-2.53,44.76-2,63.89s9.77,23.13,22.93,22.54C499.68,339.32,507,336.65,507,317s-2-65-2-65C505,247.73,504.88,243.92,504.68,240.6Zm253.62,0q-.3-5-1-9.09a54.07,54.07,0,0,0-1.68-7.39,35.94,35.94,0,0,0-2.49-6.08c-3.71-7.23-13-12.92-19.89-17.07s-15.41-6.27-25.57-6.37a58.79,58.79,0,0,0-15.16,1.9,59.51,59.51,0,0,0-13.25,5.28,55.59,55.59,0,0,0-11.21,8.05,69.46,69.46,0,0,0-9.15,10.4h-.59q-5.86-13.17-17.07-19.4A51.13,51.13,0,0,0,616,194.6a55.71,55.71,0,0,0-15,2,62.15,62.15,0,0,0-13,5.2,54.85,54.85,0,0,0-10.62,7.47,52.17,52.17,0,0,0-7.76,8.64H569a41.45,41.45,0,0,0-1.32-8.13c-2.06-7.48-6.18-12-16.28-11.64-12.46.41-17.28,9.22-17.93,21.19-1.59,29-1.46,85.59-1.4,100.33.06,14.56,9.93,20.42,22.87,20.42,17.73,0,25.78-1.65,26.85-22s-4-79.7-4-79.7c2.34-2.83,1-1.39,3.83-3.69s3.91-4.25,7.09-5.86a50.65,50.65,0,0,1,9.59-3.73,35.54,35.54,0,0,1,9.38-1.32q8.64.15,13.25,4.1a19.58,19.58,0,0,1,6.23,10.4,40.69,40.69,0,0,1,1,6.89c.2,2.63.3,5.47.3,8.49,0,0-.81,47.78,0,66,.59,13.49,5.67,19.76,18.92,20.42,14.67.72,20.79-5.94,20.79-21.48s-2-78.23-2-78.23c2.35-2.83,2-3.39,4.84-5.69a53.56,53.56,0,0,1,9.08-5.86,50.47,50.47,0,0,1,9.6-3.73,35.46,35.46,0,0,1,9.37-1.32c5.66.1,6.06.46,9.19,3.1a19.36,19.36,0,0,1,6.29,10.4,41.65,41.65,0,0,1,1,6.89c.19,2.63.29,5.47.29,8.49,0,0-1.76,41.86-1,64.36.54,15.88,5.71,22.53,23.39,23.07s23.39-7.23,23.33-22c-.07-17.16-3-66-3-66Q758.59,245.58,758.3,240.6Zm150-42.48c-13.54-2.28-24.77,4.91-31,20.56s-13.61,32.49-13.61,32.49c-7.91,19.82-12.09,28.4-14.53,35.72l-.58,1c-3.32-9.37-7-18.83-15-38.36,0,0-4.22-7.31-12.17-29.47-6.19-18.2-14-21.46-25.54-21.94s-20.77,6-17.25,21.92c10.84,48.41,43.53,110.11,43.53,110.11s-20,40.9-25,55.83,10.79,22.19,22.35,22.19,20.85-4.3,26.39-18.27,65.09-150.14,72.7-167.08C924.94,208.52,919.22,200,908.29,198.12Z"/></g></g></svg>